<?xml version="1.0" encoding="UTF-8"?>
<svg width="25px" height="33px" viewBox="0 0 25 33" version="1.1" xmlns="http://www.w3.org/2000/svg" xmlns:xlink="http://www.w3.org/1999/xlink">
    <!-- Generator: Sketch 50.2 (55047) - http://www.bohemiancoding.com/sketch -->
    <title>noun_254042_cc</title>
    <desc>Created with Sketch.</desc>
    <defs></defs>
    <g id="Page-1" stroke="none" stroke-width="1" fill="none" fill-rule="evenodd">
        <g id="SystemConfig_Dash_dropdown" transform="translate(-822.000000, -324.000000)" fill="#000000" fill-rule="nonzero">
            <g id="Group-15" transform="translate(721.000000, 250.000000)">
                <g id="Group-12" transform="translate(71.000000, 74.000000)">
                    <g id="Group-7">
                        <g id="noun_254042_cc" transform="translate(30.957004, 0.000000)">
                            <path d="M19.4486875,5.80911983 C18.9545285,2.48462354 16.1307626,0 12.6716494,0 C10.1655572,0 7.83595031,1.39978791 6.67114689,3.56945917 C6.3887703,3.49946978 6.10639371,3.46447508 5.78872005,3.46447508 C3.77678686,3.46447508 2.15312148,5.07423118 2.15312148,7.06892895 C2.15312148,7.38388123 2.18841856,7.69883351 2.2590127,7.97879109 C0.847129764,8.92364793 0,10.4984093 0,12.1781548 C0,14.9427359 2.22371563,17.3923648 4.87099614,17.5323436 C4.87099614,17.5323436 4.87099614,17.5323436 4.90629321,17.5323436 L18.4956665,17.5323436 C18.4956665,17.5323436 18.5309636,17.5323436 18.5309636,17.5323436 C21.5665119,17.3223754 23.9667129,14.7327678 23.9667129,11.6182397 C23.9667129,8.81866384 22.0606709,6.40402969 19.4486875,5.80911983 Z M18.4956665,16.6574761 L4.90629321,16.6574761 C2.71787466,16.5174973 0.882426837,14.4878049 0.882426837,12.1781548 C0.882426837,10.6733828 1.69425953,9.27359491 3.00025125,8.53870626 C3.17673661,8.43372216 3.24733076,8.22375398 3.17673661,8.01378579 C3.07084539,7.73382821 3.00025125,7.41887593 3.00025125,7.06892895 C3.00025125,5.56415695 4.23564882,4.33934252 5.75342298,4.33934252 C6.07109664,4.33934252 6.3887703,4.40933192 6.70644396,4.51431601 C6.9182264,4.58430541 7.16530592,4.47932131 7.23590007,4.30434783 C8.22421812,2.23966066 10.3420425,0.909862142 12.6363523,0.909862142 C15.7424948,0.909862142 18.2838841,3.2195122 18.5662607,6.2640509 C18.6015577,6.43902439 18.742746,6.61399788 18.9192314,6.64899258 C21.3547295,6.96394486 23.1195831,9.13361612 23.1195831,11.583245 C23.1195831,14.1728526 21.0370558,16.447508 18.4956665,16.6574761 Z M8.29481227,20.26193 C8.04773276,20.26193 7.87124739,20.4369035 7.87124739,20.6818664 L7.87124739,24.4612937 C7.87124739,25.2661718 7.23590007,25.8960764 6.42406737,25.8960764 L4.23564882,25.8960764 C4.02386638,24.9512195 3.17673661,24.2513256 2.18841856,24.2513256 C1.02361513,24.2513256 0.070594147,25.1961824 0.070594147,26.3510074 C0.070594147,27.5058324 1.02361513,28.4506893 2.18841856,28.4506893 C3.21203369,28.4506893 4.05916345,27.7507953 4.23564882,26.8059385 L6.42406737,26.8059385 C7.69476202,26.8059385 8.71837715,25.7910923 8.71837715,24.5312831 L8.71837715,20.7168611 C8.75367423,20.4718982 8.54189178,20.26193 8.29481227,20.26193 Z M2.18841856,27.5758218 C1.51777416,27.5758218 0.953020984,27.0159067 0.953020984,26.3510074 C0.953020984,25.6861082 1.51777416,25.126193 2.18841856,25.126193 C2.85906295,25.126193 3.42381613,25.6861082 3.42381613,26.3510074 C3.42381613,27.0159067 2.85906295,27.5758218 2.18841856,27.5758218 Z M21.8135914,24.2513256 C20.7899763,24.2513256 19.9428465,24.9512195 19.7663612,25.8960764 L17.5779426,25.8960764 C16.7661099,25.8960764 16.1307626,25.2661718 16.1307626,24.4612937 L16.1307626,20.6818664 C16.1307626,20.4369035 15.9542772,20.26193 15.7071977,20.26193 C15.4601182,20.26193 15.2836328,20.4369035 15.2836328,20.6818664 L15.2836328,24.4612937 C15.2836328,25.7211029 16.307248,26.7359491 17.5779426,26.7359491 L19.7663612,26.7359491 C19.9781436,27.6808059 20.8252734,28.3806999 21.8135914,28.3806999 C22.9783948,28.3806999 23.9314158,27.4358431 23.9314158,26.281018 C23.9314158,25.1961824 22.9783948,24.2513256 21.8135914,24.2513256 Z M21.8135914,27.5758218 C21.142947,27.5758218 20.5781938,27.0159067 20.5781938,26.3510074 C20.5781938,25.6861082 21.142947,25.126193 21.8135914,25.126193 C22.4842358,25.126193 23.048989,25.6861082 23.048989,26.3510074 C23.048989,27.0159067 22.5195329,27.5758218 21.8135914,27.5758218 Z M12.4245699,28.7656416 L12.4245699,20.7168611 C12.4245699,20.4718982 12.2480845,20.2969247 12.001005,20.2969247 C11.7539255,20.2969247 11.5774401,20.4718982 11.5774401,20.7168611 L11.5774401,28.7656416 C10.589122,28.9756098 9.8478835,29.8154825 9.8478835,30.8653234 C9.8478835,32.0551432 10.8009045,33 12.001005,33 C13.2011055,33 14.1541265,32.0551432 14.1541265,30.8653234 C14.1541265,29.8154825 13.4128879,28.9406151 12.4245699,28.7656416 Z M12.001005,32.0901379 C11.2950635,32.0901379 10.7656074,31.5302227 10.7656074,30.8653234 C10.7656074,30.2004242 11.3303606,29.640509 12.001005,29.640509 C12.6716494,29.640509 13.2364026,30.2004242 13.2364026,30.8653234 C13.2364026,31.5302227 12.7069465,32.0901379 12.001005,32.0901379 Z" id="Shape"></path>
                        </g>
                    </g>
                </g>
            </g>
        </g>
    </g>
</svg>