<?xml version="1.0" encoding="UTF-8"?>
<svg width="17px" height="20px" viewBox="0 0 17 20" version="1.1" xmlns="http://www.w3.org/2000/svg" xmlns:xlink="http://www.w3.org/1999/xlink">
    <!-- Generator: Sketch 50.2 (55047) - http://www.bohemiancoding.com/sketch -->
    <title>Help Portal</title>
    <desc>Created with Sketch.</desc>
    <defs></defs>
    <g id="Page-1" stroke="none" stroke-width="1" fill="none" fill-rule="evenodd">
        <g id="SystemConfig_Dash_dropdown" transform="translate(-1209.000000, -8.000000)" stroke="#000000">
            <g id="Navigation-/-1280-/-Main-/-Lockup-/-OP">
                <g id="Help-Portal" transform="translate(1210.000000, 9.000000)">
                    <rect id="Rectangle-2" stroke-width="0.75" stroke-linecap="round" stroke-linejoin="round" x="0" y="0" width="12" height="15"></rect>
                    <polyline id="Rectangle-2" stroke-width="0.75" stroke-linecap="round" stroke-linejoin="round" points="13.4338728 3 15 3 15 18 3 18 3 16.3466283"></polyline>
                    <path d="M6,3.42424242 C7.276,3.42424242 8.31,4.42121212 8.31,5.65151515 C8.31,6.86060606 7.21,7.87878788 5.89,7.87878788 L5.67,7.87878788 L5.67,10 L6.11,10 L6.11,8.3030303 C7.562,8.1969697 8.75,7.03030303 8.75,5.65151515 C8.75,4.18787879 7.518,3 6,3 C4.482,3 3.25,4.18787879 3.25,5.65151515 L3.69,5.65151515 C3.69,4.42121212 4.724,3.42424242 6,3.42424242 Z" id="Shape" stroke-width="0.45" fill="#000000" fill-rule="nonzero"></path>
                    <circle id="Oval" stroke-width="0.05" fill="#000000" stroke-linecap="square" cx="5.94995117" cy="12" r="1"></circle>
                </g>
            </g>
        </g>
    </g>
</svg>