<?xml version="1.0" encoding="UTF-8"?>
<svg width="26px" height="25px" viewBox="0 0 26 25" version="1.1" xmlns="http://www.w3.org/2000/svg" xmlns:xlink="http://www.w3.org/1999/xlink">
    <!-- Generator: Sketch 50.2 (55047) - http://www.bohemiancoding.com/sketch -->
    <title>noun_1584282_cc</title>
    <desc>Created with Sketch.</desc>
    <defs></defs>
    <g id="Page-1" stroke="none" stroke-width="1" fill="none" fill-rule="evenodd">
        <g id="SystemConfig_Dash_dropdown" transform="translate(-364.000000, -326.000000)" fill="#000000" fill-rule="nonzero">
            <g id="Group-16" transform="translate(263.000000, 250.000000)">
                <g id="Group-10" transform="translate(65.000000, 76.000000)">
                    <g id="Group-5">
                        <g id="noun_1584282_cc" transform="translate(36.948682, 0.000000)">
                            <path d="M12.482663,6.47630098e-16 C5.58867857,-1.48029737e-15 8.3151239e-16,5.59644063 0,12.5 C-8.3151239e-16,19.4035594 5.58867857,25 12.482663,25 C19.3766474,25 24.9653259,19.4035594 24.9653259,12.5 C24.9575297,5.59967702 19.3734155,0.00780710147 12.482663,6.47630098e-16 Z M12.482663,24.1666667 C6.04827753,24.1666667 0.832177531,18.9433221 0.832177531,12.5 C0.832177531,6.05667792 6.04827753,0.833333333 12.482663,0.833333333 C18.9170484,0.833333333 24.1331484,6.05667792 24.1331484,12.5 C24.1258109,18.9402761 18.9140066,24.1593189 12.482663,24.1666667 Z" id="Shape"></path>
                            <path d="M12.8987517,15.875 L12.8987517,2.5 L12.0665742,2.5 L12.0665742,15.875 C11.0969526,16.0721635 10.4001335,16.9258827 10.4001335,17.9166667 C10.4001335,18.9074507 11.0969526,19.7611698 12.0665742,19.9583333 L12.0665742,23.3333333 L12.8987517,23.3333333 L12.8987517,19.9583333 C13.8683734,19.7611698 14.5651925,18.9074507 14.5651925,17.9166667 C14.5651925,16.9258827 13.8683734,16.0721635 12.8987517,15.875 Z M12.482663,19.1666667 C11.7932645,19.1666667 11.2343967,18.6070226 11.2343967,17.9166667 C11.2343967,17.2263107 11.7932645,16.6666667 12.482663,16.6666667 C13.1720614,16.6666667 13.7309293,17.2263107 13.7309293,17.9166667 C13.7309293,18.6070226 13.1720614,19.1666667 12.482663,19.1666667 Z" id="Shape"></path>
                            <path d="M6.24133148,10.4583333 L6.24133148,6.66666667 L5.40915395,6.66666667 L5.40915395,10.4583333 C4.43953233,10.6554969 3.74271322,11.509216 3.74271322,12.5 C3.74271322,13.490784 4.43953233,14.3445031 5.40915395,14.5416667 L5.40915395,20.4166667 L6.24133148,20.4166667 L6.24133148,14.5416667 C7.21095311,14.3445031 7.90777222,13.490784 7.90777222,12.5 C7.90777222,11.509216 7.21095311,10.6554969 6.24133148,10.4583333 Z M5.82524272,13.75 C5.13584428,13.75 4.57697642,13.1903559 4.57697642,12.5 C4.57697642,11.8096441 5.13584428,11.25 5.82524272,11.25 C6.51464116,11.25 7.07350902,11.8096441 7.07350902,12.5 C7.07350902,13.1903559 6.51464116,13.75 5.82524272,13.75 Z" id="Shape"></path>
                            <path d="M19.556172,6.70833333 L19.556172,4.16666667 L18.7239945,4.16666667 L18.7239945,6.70833333 C17.7543728,6.90549686 17.0575537,7.759216 17.0575537,8.75 C17.0575537,9.740784 17.7543728,10.5945031 18.7239945,10.7916667 L18.7239945,17.5 L19.556172,17.5 L19.556172,10.7916667 C20.5257936,10.5945031 21.2226127,9.740784 21.2226127,8.75 C21.2226127,7.759216 20.5257936,6.90549686 19.556172,6.70833333 Z M19.1400832,10 C18.4506848,10 17.8918169,9.44035594 17.8918169,8.75 C17.8918169,8.05964406 18.4506848,7.5 19.1400832,7.5 C19.8294817,7.5 20.3883495,8.05964406 20.3883495,8.75 C20.3883495,9.44035594 19.8294817,10 19.1400832,10 Z" id="Shape"></path>
                            <rect id="Rectangle-path" x="18.7239945" y="18.3333333" width="1" height="2.08333333"></rect>
                            <rect id="Rectangle-path" x="5.40915395" y="4.16666667" width="1" height="1.66666667"></rect>
                        </g>
                    </g>
                </g>
            </g>
        </g>
    </g>
</svg>