<?xml version="1.0" encoding="UTF-8"?>
<svg width="19px" height="19px" viewBox="0 0 19 19" version="1.1" xmlns="http://www.w3.org/2000/svg" xmlns:xlink="http://www.w3.org/1999/xlink">
    <!-- Generator: Sketch 50.2 (55047) - http://www.bohemiancoding.com/sketch -->
    <title>Icons / Settings</title>
    <desc>Created with Sketch.</desc>
    <defs></defs>
    <g id="Page-1" stroke="none" stroke-width="1" fill="none" fill-rule="evenodd">
        <g id="SystemConfig_Dash_dropdown" transform="translate(-1275.000000, -8.000000)">
            <g id="Navigation-/-1280-/-Main-/-Lockup-/-OP">
                <g id="Icons-/-Settings-/-Black" transform="translate(1275.000000, 8.000000)">
                    <g id="Gear" stroke-width="1" fill-rule="evenodd" fill="#000000">
                        <path d="M18.129559,10.7061126 L16.2151546,11.3225518 C16.1175242,11.3539161 16.0385237,11.427021 15.9998489,11.5218215 L15.5362225,12.6806517 C15.497076,12.7749806 15.501085,12.881808 15.5477778,12.9725996 L16.4747948,14.7688572 L14.7643765,16.4792755 L12.9704771,15.5522584 C12.877799,15.4951895 12.7636611,15.4848133 12.6622575,15.5244314 L11.5034273,16.0019714 C11.4095701,16.0413537 11.3374085,16.1201183 11.3065158,16.217277 L10.6924348,18.1408786 L8.28681275,18.1408786 L7.67249596,16.2196352 C7.64160326,16.1224765 7.56967749,16.0434761 7.47558444,16.0040938 L6.31675423,15.5265538 C6.22242536,15.487879 6.11583373,15.491888 6.02480637,15.5383449 L4.22854879,16.4653619 L2.52756338,14.7594243 L3.45458039,12.9612801 C3.50127318,12.871196 3.50622545,12.7653119 3.4684939,12.6714546 L2.99095397,11.5126244 C2.95157167,11.4185314 2.87280706,11.3463698 2.77564832,11.3154771 L0.851810947,10.7013961 L0.851810947,8.29365162 L2.77305428,7.6769766 C2.87044884,7.6460839 2.94921345,7.57415813 2.98859575,7.48006508 L3.46613567,6.32123487 C3.50528216,6.22690599 3.50103736,6.12007854 3.45458039,6.02905118 L2.52756338,4.23090703 L4.23798168,2.52048872 L6.03400343,3.44750573 C6.12503079,3.4939627 6.23162242,3.4982075 6.32595129,3.45906102 L7.4847815,2.98152109 C7.57887456,2.94213879 7.65103614,2.86337418 7.68192885,2.76597962 L8.29600982,0.840255662 L10.7016319,0.840255662 L11.3135905,2.77753491 C11.3444832,2.87492947 11.4164089,2.95369408 11.510502,2.99307638 L12.6693322,3.47061631 C12.7636611,3.50976279 12.8702527,3.50551799 12.9612801,3.45906102 L14.7573018,2.53204401 L16.0274401,3.80194647 L16.4700783,4.24482054 L15.5430613,6.04320051 C15.4947178,6.13045472 15.486464,6.23421648 15.5199508,6.32830953 L15.9833414,7.48690392 C16.022252,7.58194026 16.1012524,7.65504514 16.1988828,7.68617367 L18.1387561,8.29365162 L18.129559,10.7061126 Z M18.7526013,7.67579749 L16.7033065,7.02257004 L16.3448568,6.15474441 L17.3282353,4.24222649 C17.397567,4.11040189 17.3770505,3.94909952 17.2763544,3.83897056 L16.6443509,3.2069671 L15.1539547,1.7165709 C15.0450049,1.60785687 14.8780428,1.58215225 14.7412659,1.65289891 L12.8311062,2.63887146 L11.9703553,2.28513818 L11.3171278,0.235843404 C11.2666619,0.0931709827 11.1310641,-0.00162953535 10.9799021,2.12199434e-05 L8.00854257,2.12199434e-05 C7.85714473,-0.00162953535 7.7217828,0.0931709827 7.67131685,0.235843404 L7.01573118,2.28513818 L6.15026377,2.64358791 L4.23774586,1.65761535 C4.1042705,1.59017021 3.94296813,1.61375243 3.83448992,1.7165709 L1.71209027,3.83897056 C1.60314042,3.94815623 1.57743581,4.11488251 1.64841828,4.25165938 L2.63179679,6.16417729 L2.28277996,7.02257004 L0.235843404,7.67815572 C0.0931709825,7.72862166 -0.00162953534,7.86421942 2.12199433e-05,8.01538144 L2.12199433e-05,10.986741 C-0.00162953534,11.1381388 0.0931709825,11.2737366 0.235843404,11.3242025 L2.28277996,11.9795524 L2.64122968,12.8476138 L1.65785117,14.7575377 C1.5901702,14.8893623 1.61186584,15.0494856 1.71209027,15.1584354 L3.83448992,17.2808351 C3.94343977,17.3897849 4.11040188,17.4154895 4.24717875,17.344507 L6.15969665,16.3587703 L7.02516407,16.71722 L7.68074974,18.7641566 C7.73121569,18.906829 7.86657762,19.0016295 8.01797546,18.9999788 L10.9799021,18.9999788 C11.1310641,19.0016295 11.2666619,18.906829 11.3171278,18.7641566 L11.9703553,16.7148618 L12.8381809,16.3564121 L14.7483406,17.3421488 C14.8827592,17.4103014 15.0457124,17.3857759 15.1539547,17.2808351 L17.2763544,15.1584354 C17.3850684,15.0494856 17.410773,14.8825234 17.3397906,14.7457466 L16.3564121,12.8334645 L16.7150976,11.965403 L18.7641565,11.3100532 C18.9070648,11.2595872 19.0016295,11.1239895 18.9999787,10.9725916 L18.9999787,8.01325904 C18.9999787,7.85879551 18.8999901,7.72225446 18.7526013,7.67579749 Z" id="Fill-1"></path>
                    </g>
                    <circle id="Oval" stroke="#000000" stroke-width="0.75" stroke-linecap="square" cx="9.5" cy="9.5" r="4.5"></circle>
                </g>
            </g>
        </g>
    </g>
</svg>