<?xml version="1.0" encoding="UTF-8"?>
<svg width="25px" height="24px" viewBox="0 0 25 24" version="1.1" xmlns="http://www.w3.org/2000/svg" xmlns:xlink="http://www.w3.org/1999/xlink">
    <!-- Generator: Sketch 50.2 (55047) - http://www.bohemiancoding.com/sketch -->
    <title>Stroke 1</title>
    <desc>Created with Sketch.</desc>
    <defs></defs>
    <g id="Page-1" stroke="none" stroke-width="1" fill="none" fill-rule="evenodd">
        <g id="SystemConfig_Dash_dropdown" transform="translate(-592.000000, -541.000000)" stroke="#000000" stroke-width="0.75">
            <g id="Group-17" transform="translate(492.000000, 465.000000)">
                <g id="Group-3" transform="translate(56.000000, 77.000000)">
                    <path d="M55.3062413,16.3777778 L64.4357836,16.3777778 L55.3062413,16.3777778 Z M55.2085992,13.8355556 L64.1428571,13.8355556 L55.2085992,13.8355556 Z M55.2574202,10.9511111 L60.6277393,10.9511111 L55.2574202,10.9511111 Z M48.2760055,17.2088889 L53.6951456,17.2088889 L53.6951456,10.3644444 L48.2760055,10.3644444 L48.2760055,17.2088889 Z M53.5975035,3.61777778 L54.1833564,3.61777778 L55.2085992,3.61777778 L53.5975035,3.61777778 Z M50.6682386,3.61777778 L51.2540915,3.61777778 L52.2793343,3.61777778 L50.6682386,3.61777778 Z M47.934258,3.61777778 L49.4965326,3.61777778 L47.934258,3.61777778 Z M68.0973648,6.35555556 L44.8585298,6.35555556 L68.0973648,6.35555556 Z M68.0973648,22 L44.8585298,22 L44.8585298,6.40444444 L44.8585298,0 L68.0973648,0 L68.0973648,22 Z" id="Stroke-1"></path>
                </g>
            </g>
        </g>
    </g>
</svg>