<svg xmlns="http://www.w3.org/2000/svg" width="30" height="30"><path d="M 29.609 12.12 C 29.842 12.193 30 12.409 30 12.653 L 30 17.325 C 30.003 17.564 29.853 17.778 29.628 17.858 L 26.392 18.893 L 25.826 20.263 L 27.379 23.283 C 27.491 23.499 27.45 23.762 27.278 23.934 L 23.927 27.286 C 23.756 27.451 23.499 27.49 23.287 27.382 L 20.271 25.826 L 18.901 26.392 L 17.869 29.628 C 17.789 29.853 17.575 30.003 17.337 30 L 12.66 30 C 12.421 30.003 12.207 29.853 12.127 29.628 L 11.092 26.396 L 9.726 25.83 L 6.706 27.386 C 6.49 27.498 6.226 27.458 6.054 27.286 L 2.703 23.934 C 2.545 23.762 2.511 23.51 2.618 23.301 L 4.17 20.286 L 3.604 18.915 L 0.372 17.88 C 0.147 17.801 -0.003 17.587 0 17.347 L 0 12.656 C -0.003 12.417 0.147 12.203 0.372 12.123 L 3.604 11.088 L 4.155 9.733 L 2.603 6.713 C 2.491 6.497 2.531 6.234 2.703 6.062 L 6.054 2.71 C 6.226 2.548 6.48 2.511 6.691 2.617 L 9.711 4.174 L 11.077 3.608 L 12.113 0.372 C 12.192 0.147 12.406 -0.003 12.645 0 L 17.337 0 C 17.575 -0.003 17.789 0.147 17.869 0.372 L 18.901 3.608 L 20.26 4.167 L 23.276 2.61 C 23.492 2.498 23.755 2.539 23.927 2.71 L 27.278 6.062 C 27.437 6.235 27.47 6.49 27.36 6.698 L 25.808 9.718 L 26.374 11.088 Z M 15 22.105 C 18.924 22.105 22.105 18.924 22.105 15 C 22.105 11.076 18.924 7.895 15 7.895 C 11.076 7.895 7.895 11.076 7.895 15 C 7.895 18.924 11.076 22.105 15 22.105 Z" fill="rgba(0,89,113,1)"></path></svg>