<?xml version="1.0" encoding="UTF-8"?>
<svg width="209px" height="21px" viewBox="0 0 209 21" version="1.1" xmlns="http://www.w3.org/2000/svg" xmlns:xlink="http://www.w3.org/1999/xlink">
    <!-- Generator: Sketch 50.2 (55047) - http://www.bohemiancoding.com/sketch -->
    <title>Global Elements / Logo</title>
    <desc>Created with Sketch.</desc>
    <defs></defs>
    <g id="Page-1" stroke="none" stroke-width="1" fill="none" fill-rule="evenodd">
        <g id="SystemConfig_Dash_dropdown" transform="translate(-80.000000, -8.000000)">
            <g id="Navigation-/-1280-/-Main-/-Lockup-/-OP">
                <g id="Global-Elements-/-Logo" transform="translate(80.000000, 8.000000)">
                    <g id="Group-Copy-2">
                        <g id="Logo" transform="translate(0.000000, 0.157884)" fill="#333333">
                            <path d="M35.4122424,10.2448145 L35.4122424,10.2285926 C35.4122424,8.57651993 36.6430214,7.12764789 38.4561318,7.12764789 C40.2683946,7.12764789 41.483916,8.55944424 41.483916,10.2132245 L41.483916,10.2285926 C41.483916,11.8832267 40.2514417,13.3295374 38.4383313,13.3295374 C36.6277638,13.3295374 35.4122424,11.9011562 35.4122424,10.2448145 Z M40.786305,10.2448145 L40.786305,10.2285926 C40.786305,8.86680661 39.8004951,7.75347181 38.4383313,7.75347181 C37.0787104,7.75347181 36.1090058,8.84973092 36.1090058,10.2132245 L36.1090058,10.2285926 C36.1090058,11.5920862 37.0956633,12.7071286 38.4561318,12.7071286 C39.8157527,12.7071286 40.786305,11.6083082 40.786305,10.2448145 Z M51.8234767,13.2262295 L52.4787055,13.2262295 L52.4787055,8.30843164 L56.3227707,13.2262295 L56.8593293,13.2262295 L56.8593293,7.22754065 L56.2024053,7.22754065 L56.2024053,12.0343465 L52.4532761,7.22754065 L51.8234767,7.22754065 L51.8234767,13.2262295 Z M63.3760159,13.2262295 L64.0490452,13.2262295 L64.0490452,10.615357 L67.2726351,10.615357 L67.2726351,9.99807087 L64.0490452,9.99807087 L64.0490452,7.85592594 L67.6566178,7.85592594 L67.6566178,7.22754065 L63.3760159,7.22754065 L63.3760159,13.2262295 Z M70.0452784,13.2262295 L74.3928442,13.2262295 L74.3928442,12.6097972 L70.7157648,12.6097972 L70.7157648,10.5111953 L73.9673269,10.5111953 L73.9673269,9.89305539 L70.7157648,9.89305539 L70.7157648,7.84482674 L74.3521573,7.84482674 L74.3521573,7.22754065 L70.0452784,7.22754065 L70.0452784,13.2262295 Z M93.8276243,13.2262295 L94.5099777,13.2262295 L94.5099777,10.8441712 L96.9834027,7.22754065 L96.2010274,7.22754065 L94.1785489,10.2277389 L92.1704805,7.22754065 L91.3533517,7.22754065 L93.8276243,10.8518552 L93.8276243,13.2262295 Z M81.2333307,13.2262295 L79.509223,10.9013747 L77.8054587,10.9013747 L77.8054587,13.2262295 L77.133277,13.2262295 L77.133277,7.22754065 L79.6931617,7.22754065 C80.4255261,7.22754065 81.011248,7.45293972 81.3859066,7.82689727 C81.6741056,8.11889152 81.8453297,8.53895342 81.8453297,9.01280373 L81.8453297,9.02817185 C81.8453297,10.0185617 81.1680622,10.5999888 80.2390444,10.7724533 L80.2390444,10.789529 L82.0572406,13.2262295 L81.2333307,13.2262295 Z M77.8054587,7.85592594 L77.8054587,10.2840886 L79.7592779,10.2840886 C80.5857308,10.2405456 81.1655192,9.78803992 81.1655192,9.05378538 L81.1655192,9.03670969 C81.1655192,8.29904001 80.6026836,7.85592594 79.6423031,7.85592594 L77.8054587,7.85592594 Z M88.8595832,13.2262295 L87.1354755,10.9013747 L85.4308635,10.9013747 L85.4308635,13.2262295 L84.7578342,13.2262295 L84.7578342,7.22754065 L87.3185666,7.22754065 C88.0500833,7.22754065 88.6366529,7.45293972 89.0113115,7.82689727 C89.2995104,8.11889152 89.4698869,8.53895342 89.4698869,9.01280373 L89.4698869,9.02817185 C89.4698869,10.0185617 88.7951623,10.5999888 87.8652969,10.7724533 L87.8652969,10.789529 L89.6834931,13.2262295 L88.8595832,13.2262295 Z M85.4308635,7.85592594 L85.4308635,10.2840886 L87.3846828,10.2840886 C88.2111356,10.2405456 88.7883811,9.78803992 88.7883811,9.05378538 L88.7883811,9.03670969 C88.7883811,8.29904001 88.2289361,7.85592594 87.2668603,7.85592594 L85.4308635,7.85592594 Z M48.2998209,13.2270833 L46.5757131,10.9013747 L44.8719488,10.9013747 L44.8719488,13.2270833 L44.1989195,13.2270833 L44.1989195,7.22924822 L46.7596518,7.22924822 C47.4911685,7.22924822 48.0777381,7.45379351 48.4523968,7.82860484 C48.7414433,8.1197453 48.9118198,8.5398072 48.9118198,9.01365751 L48.9118198,9.02987942 C48.9118198,10.0194155 48.2362476,10.6008426 47.3055345,10.7733071 L47.3055345,10.7903827 L49.1245784,13.2270833 L48.2998209,13.2270833 Z M44.8719488,7.85677972 L44.8719488,10.2849424 L46.8274633,10.2849424 C47.6530685,10.2413994 48.2311617,9.7888937 48.2311617,9.05463916 L48.2311617,9.03841726 C48.2311617,8.2998938 47.6700214,7.85677972 46.7087932,7.85677972 L44.8719488,7.85677972 Z M28.8514784,13.2270833 L29.52366,13.2270833 L29.52366,7.22924822 L28.8514784,7.22924822 L28.8514784,13.2270833 Z M31.2596348,9.85036618 L33.8093478,7.22924822 L32.9430557,7.22924822 L30.4289437,9.86146537 L33.0786787,13.2270833 L33.9212368,13.2270833 L31.2596348,9.85036618 Z" id="Fill-2"></path>
                            <path d="M14.1461275,1.93160171 L14.1461275,2.18773702 L16.1414814,2.18773702 C19.4600074,2.18773702 21.1078272,4.15144102 21.8037429,7.28226823 L21.9902245,7.28226823 L21.9902245,1.93160171 L14.1461275,1.93160171 Z M14.1461275,9.99217976 L14.1461275,10.2517302 C17.6274012,10.2517302 17.9520488,12.5876842 18.0435944,13.732609 L18.230076,13.732609 L18.230076,6.58131128 L18.0435944,6.58131128 C17.8342263,8.87201469 16.837397,9.99217976 14.1461275,9.99217976 L14.1461275,9.99217976 Z" id="f"></path>
                            <polygon id="line" points="11.9812449 20.4971424 12.2355381 20.4971424 12.2355381 0.00631800419 11.9812449 0.00631800419"></polygon>
                            <polygon id="k" points="10.709779 18.3157234 10.709779 18.5718587 6.08418605 18.5718587 0.0320083391 9.82654559 6.82587449 1.93160171 8.80597073 1.93160171 8.80597073 2.18773702 6.94200171 2.18773702 2.11043127 7.80136912 9.38491154 18.3157234"></polygon>
                            <path d="M99.0096108,7.7301635 C99.1172616,7.7301635 99.2003307,7.68235158 99.2003307,7.59185044 L99.2003307,7.58758151 C99.2003307,7.50903335 99.1316715,7.45780629 99.0197825,7.45780629 L98.7858328,7.45780629 L98.7858328,7.7301635 L99.0096108,7.7301635 Z M98.701916,7.37669678 L99.0231731,7.37669678 C99.1113281,7.37669678 99.187616,7.40401788 99.2333888,7.44926845 C99.2647516,7.48085847 99.287638,7.52867039 99.287638,7.58416638 L99.287638,7.58758151 C99.287638,7.70454997 99.2071118,7.7737065 99.0918323,7.79505111 L99.3308678,8.09985212 L99.2215218,8.09985212 L98.9935056,7.80871166 L98.990115,7.80871166 L98.7858328,7.80871166 L98.7858328,8.09985212 L98.701916,8.09985212 L98.701916,7.37669678 Z M99.6258479,7.7574846 L99.6258479,7.75406946 C99.6258479,7.3920649 99.3461254,7.09836308 98.975705,7.09836308 C98.6035893,7.09836308 98.3230192,7.39633382 98.3230192,7.7574846 L98.3230192,7.76175352 C98.3230192,8.1229043 98.6018941,8.4174599 98.9723145,8.4174599 C99.3452778,8.4174599 99.6258479,8.11948916 99.6258479,7.7574846 L99.6258479,7.7574846 Z M98.2636841,7.76175352 L98.2636841,7.7574846 C98.2636841,7.36901272 98.57816,7.0428671 98.975705,7.0428671 C99.3749453,7.0428671 99.6843354,7.3647438 99.6843354,7.75406946 L99.6843354,7.7574846 C99.6843354,8.14681026 99.3707071,8.47295589 98.9723145,8.47295589 C98.5739218,8.47295589 98.2636841,8.15107919 98.2636841,7.76175352 L98.2636841,7.76175352 Z" id="Fill-6"></path>
                        </g>
                        <g id="Group-2" transform="translate(107.354541, 7.104345)" fill="#919191">
                            <rect id="Rectangle" x="0" y="0.394685813" width="1" height="1.97342906"></rect>
                            <rect id="Rectangle-Copy" x="0" y="4.34154394" width="1" height="1.97342906"></rect>
                        </g>
                        <path d="M117.701842,13.8518519 L117.701842,7.57777778 L119.977105,7.57777778 C121.349211,7.57777778 122.252368,8.33066667 122.252368,9.56755556 L122.252368,9.58548148 C122.252368,10.9388889 121.158158,11.638 119.864211,11.638 L118.387895,11.638 L118.387895,13.8518519 L117.701842,13.8518519 Z M118.387895,10.9926667 L119.890263,10.9926667 C120.897632,10.9926667 121.557632,10.436963 121.557632,9.61237037 L121.557632,9.59444444 C121.557632,8.69814815 120.906316,8.23207407 119.925,8.23207407 L118.387895,8.23207407 L118.387895,10.9926667 Z M125.081842,13.8518519 L125.081842,7.57777778 L127.695789,7.57777778 C128.442632,7.57777778 129.041842,7.81081481 129.423947,8.20518519 C129.719211,8.50992593 129.892895,8.94911111 129.892895,9.44207407 L129.892895,9.46 C129.892895,10.4997037 129.198158,11.1091852 128.242895,11.2884444 L130.11,13.8518519 L129.267632,13.8518519 L127.504737,11.4139259 L125.767895,11.4139259 L125.767895,13.8518519 L125.081842,13.8518519 Z M125.767895,10.7775556 L127.635,10.7775556 C128.546842,10.7775556 129.198158,10.2935556 129.198158,9.48688889 L129.198158,9.46896296 C129.198158,8.69814815 128.625,8.23207407 127.643684,8.23207407 L125.767895,8.23207407 L125.767895,10.7775556 Z M135.761842,13.9594074 C133.912105,13.9594074 132.670263,12.4625926 132.670263,10.7327407 L132.670263,10.7148148 C132.670263,8.98496296 133.929474,7.47022222 135.779211,7.47022222 C137.628947,7.47022222 138.870789,8.96703704 138.870789,10.6968889 L138.870789,10.7148148 C138.870789,12.4446667 137.611579,13.9594074 135.761842,13.9594074 Z M135.779211,13.3051111 C137.168684,13.3051111 138.158684,12.1578519 138.158684,10.7327407 L138.158684,10.7148148 C138.158684,9.2897037 137.151316,8.12451852 135.761842,8.12451852 C134.372368,8.12451852 133.382368,9.27177778 133.382368,10.6968889 L133.382368,10.7148148 C133.382368,12.1399259 134.389737,13.3051111 135.779211,13.3051111 Z M141.9,13.8518519 L141.9,7.57777778 L144.010263,7.57777778 C145.920789,7.57777778 147.240789,8.93118519 147.240789,10.6968889 L147.240789,10.7148148 C147.240789,12.4805185 145.920789,13.8518519 144.010263,13.8518519 L141.9,13.8518519 Z M144.010263,8.23207407 L142.586053,8.23207407 L142.586053,13.1975556 L144.010263,13.1975556 C145.547368,13.1975556 146.528684,12.122 146.528684,10.7327407 L146.528684,10.7148148 C146.528684,9.32555556 145.547368,8.23207407 144.010263,8.23207407 Z M152.701579,13.9504444 C151.199211,13.9504444 150.174474,13.0003704 150.174474,11.2257037 L150.174474,7.57777778 L150.860526,7.57777778 L150.860526,11.1808889 C150.860526,12.5342963 151.563947,13.2961481 152.718947,13.2961481 C153.839211,13.2961481 154.551316,12.597037 154.551316,11.2257037 L154.551316,7.57777778 L155.237368,7.57777778 L155.237368,11.1719259 C155.237368,13.0003704 154.221316,13.9504444 152.701579,13.9504444 Z M161.219211,13.9594074 C159.465,13.9594074 158.171053,12.5342963 158.171053,10.7327407 L158.171053,10.7148148 C158.171053,8.94014815 159.456316,7.47022222 161.245263,7.47022222 C162.348158,7.47022222 163.008158,7.87355556 163.616053,8.46511111 L163.147105,8.98496296 C162.634737,8.48303704 162.061579,8.12451852 161.236579,8.12451852 C159.890526,8.12451852 158.883158,9.25385185 158.883158,10.6968889 L158.883158,10.7148148 C158.883158,12.1668148 159.899211,13.3051111 161.236579,13.3051111 C162.070263,13.3051111 162.617368,12.9734815 163.199211,12.3998519 L163.650789,12.856963 C163.016842,13.5202222 162.322105,13.9594074 161.219211,13.9594074 Z M168.034737,13.8518519 L168.034737,8.23207407 L165.993947,8.23207407 L165.993947,7.57777778 L170.770263,7.57777778 L170.770263,8.23207407 L168.729474,8.23207407 L168.729474,13.8518519 L168.034737,13.8518519 Z M179.902895,13.9414815 C178.938947,13.9414815 178.148684,13.6098519 177.419211,12.9376296 L177.844737,12.4177778 C178.478684,13.0093333 179.086579,13.3051111 179.928947,13.3051111 C180.745263,13.3051111 181.283684,12.856963 181.283684,12.2385185 L181.283684,12.2205926 C181.283684,11.638 180.979737,11.3063704 179.703158,11.0285185 C178.305,10.7148148 177.662368,10.2487407 177.662368,9.218 L177.662368,9.20007407 C177.662368,8.21414815 178.504737,7.48814815 179.659737,7.48814815 C180.545526,7.48814815 181.179474,7.74807407 181.796053,8.25896296 L181.396579,8.8057037 C180.832105,8.33066667 180.267632,8.12451852 179.642368,8.12451852 C178.852105,8.12451852 178.348421,8.57266667 178.348421,9.13733333 L178.348421,9.15525926 C178.348421,9.74681481 178.661053,10.0784444 179.998421,10.3742222 C181.353158,10.678963 181.978421,11.1898519 181.978421,12.1488889 L181.978421,12.1668148 C181.978421,13.2423704 181.11,13.9414815 179.902895,13.9414815 Z M187.387105,13.9504444 C185.884737,13.9504444 184.86,13.0003704 184.86,11.2257037 L184.86,7.57777778 L185.546053,7.57777778 L185.546053,11.1808889 C185.546053,12.5342963 186.249474,13.2961481 187.404474,13.2961481 C188.524737,13.2961481 189.236842,12.597037 189.236842,11.2257037 L189.236842,7.57777778 L189.922895,7.57777778 L189.922895,11.1719259 C189.922895,13.0003704 188.906842,13.9504444 187.387105,13.9504444 Z M193.186579,13.8518519 L193.186579,7.57777778 L193.872632,7.57777778 L193.872632,13.8518519 L193.186579,13.8518519 Z M198.838421,13.8518519 L198.838421,8.23207407 L196.797632,8.23207407 L196.797632,7.57777778 L201.573947,7.57777778 L201.573947,8.23207407 L199.533158,8.23207407 L199.533158,13.8518519 L198.838421,13.8518519 Z M204.438158,13.8518519 L204.438158,7.57777778 L208.832368,7.57777778 L208.832368,8.22311111 L205.124211,8.22311111 L205.124211,10.3652593 L208.441579,10.3652593 L208.441579,11.0105926 L205.124211,11.0105926 L205.124211,13.2065185 L208.875789,13.2065185 L208.875789,13.8518519 L204.438158,13.8518519 Z" id="Product-Name" fill="#333333"></path>
                    </g>
                </g>
            </g>
        </g>
    </g>
</svg>