<?xml version="1.0" encoding="UTF-8"?>
<svg width="34px" height="26px" viewBox="0 0 34 26" version="1.1" xmlns="http://www.w3.org/2000/svg" xmlns:xlink="http://www.w3.org/1999/xlink">
    <!-- Generator: Sketch 50.2 (55047) - http://www.bohemiancoding.com/sketch -->
    <title>noun_1688184_cc</title>
    <desc>Created with Sketch.</desc>
    <defs></defs>
    <g id="Page-1" stroke="none" stroke-width="1" fill="none" fill-rule="evenodd">
        <g id="SystemConfig_Dash_dropdown" transform="translate(-1046.000000, -328.000000)" fill="#000000" fill-rule="nonzero">
            <g id="Group-2" transform="translate(950.000000, 250.000000)">
                <g id="Group-6" transform="translate(51.000000, 78.000000)">
                    <g id="noun_1688184_cc" transform="translate(45.000000, 0.000000)">
                        <g id="Group">
                            <path d="M2.34514276,0.272265882 C1.28208752,0.272265882 0.404240979,1.33716471 0.404240979,2.64604039 L0.404240979,9.52839333 C0.404240979,10.8372588 1.28208752,11.9021882 2.34514276,11.9021882 L7.97375817,11.9021882 C9.03681341,11.9021882 9.90172068,10.8372588 9.90172068,9.52839333 L9.90172068,2.64604039 C9.90172068,1.33716471 9.03681341,0.272265882 7.97375817,0.272265882 L2.34514276,0.272265882 Z M14.1587654,0.272265882 C13.0957102,0.272265882 12.2308029,1.33716471 12.2308029,2.64604039 L12.2308029,9.52839333 C12.2308029,10.8372588 13.0957102,11.9021882 14.1587654,11.9021882 L19.7873808,11.9021882 C20.8504361,11.9021882 21.7153434,10.8372588 21.7153434,9.52839333 L21.7153434,2.64604039 C21.7153434,1.33716471 20.8504361,0.272265882 19.7873808,0.272265882 L14.1587654,0.272265882 Z M25.9723881,0.272265882 C24.9093329,0.272265882 24.0444256,1.33716471 24.0444256,2.64604039 L24.0444256,9.52839333 C24.0444256,10.8372588 24.9093329,11.9021882 25.9723881,11.9021882 L31.6010035,11.9021882 C32.6640588,11.9021882 33.528966,10.8372588 33.528966,9.52839333 L33.528966,2.64604039 C33.528966,1.33716471 32.6640588,0.272265882 31.6010035,0.272265882 L25.9723881,0.272265882 Z M2.34514276,1.13256 L7.97375817,1.13256 C8.65903006,1.13256 9.20299601,1.8023098 9.20299601,2.64604039 L9.20299601,9.52839333 C9.20299601,10.3721239 8.65903006,11.0418737 7.97375817,11.0418737 L2.34514276,11.0418737 C1.65987087,11.0418737 1.11590491,10.3721239 1.11590491,9.52839333 L1.11590491,2.64604039 C1.11590491,1.8023098 1.65987087,1.13256 2.34514276,1.13256 Z M14.1587654,1.13256 L19.7873808,1.13256 C20.4726527,1.13256 21.0166187,1.8023098 21.0166187,2.64604039 L21.0166187,9.52839333 C21.0166187,10.3721239 20.4726527,11.0418737 19.7873808,11.0418737 L14.1587654,11.0418737 C13.4734935,11.0418737 12.9295276,10.3721239 12.9295276,9.52839333 L12.9295276,2.64604039 C12.9295276,1.8023098 13.4734935,1.13256 14.1587654,1.13256 Z M25.9723881,1.13256 L31.6010035,1.13256 C32.2862754,1.13256 32.8302414,1.8023098 32.8302414,2.64604039 L32.8302414,9.52839333 C32.8302414,10.3721239 32.2862754,11.0418737 31.6010035,11.0418737 L25.9723881,11.0418737 C25.2871162,11.0418737 24.7431503,10.3721239 24.7431503,9.52839333 L24.7431503,2.64604039 C24.7431503,1.8023098 25.2871162,1.13256 25.9723881,1.13256 Z M2.34514276,13.9573098 C1.28208752,13.9573098 0.404240979,15.0222392 0.404240979,16.3311098 L0.404240979,23.2134627 C0.404240979,24.5223333 1.28208752,25.5872118 2.34514276,25.5872118 L7.97375817,25.5872118 C9.03681341,25.5872118 9.90172068,24.5223333 9.90172068,23.2134627 L9.90172068,16.3311098 C9.90172068,15.0222392 9.03681341,13.9573098 7.97375817,13.9573098 L2.34514276,13.9573098 Z M14.1587654,13.9573098 C13.0957102,13.9573098 12.2308029,15.0222392 12.2308029,16.3311098 L12.2308029,23.2134627 C12.2308029,24.5223333 13.0957102,25.5872118 14.1587654,25.5872118 L19.7873808,25.5872118 C20.8504361,25.5872118 21.7153434,24.5223333 21.7153434,23.2134627 L21.7153434,16.3311098 C21.7153434,15.0222392 20.8504361,13.9573098 19.7873808,13.9573098 L14.1587654,13.9573098 Z M29.1942852,14.562702 C29.0995735,14.5635208 29.0091265,14.611301 28.9433821,14.6952458 C28.8776378,14.7791906 28.8421446,14.8922154 28.8449229,15.0087804 L28.8449229,19.4536588 L25.2477848,19.4536588 C25.2219852,19.4501342 25.1959482,19.4501342 25.1701487,19.4536588 C24.9853109,19.4909725 24.8565826,19.6999769 24.8772671,19.9291837 C24.8979515,20.1583905 25.0608027,20.3275056 25.2477848,20.3139529 L28.8449229,20.3139529 L28.8449229,24.7428745 C28.8449229,24.9848375 29.0042343,25.1809873 29.2007549,25.1809873 C29.3972755,25.1809873 29.5565869,24.9848375 29.5565869,24.7428745 L29.5565869,20.3139529 L33.153725,20.3139529 C33.2887623,20.3343653 33.4212623,20.2571321 33.494028,20.1155933 C33.5667936,19.9740544 33.5667936,19.7935574 33.494028,19.6520185 C33.4212623,19.5104796 33.2887623,19.4332465 33.153725,19.4536588 L29.5565869,19.4536588 L29.5565869,15.0087804 C29.5594724,14.8894193 29.5222288,14.7738816 29.4536486,14.6894432 C29.3850683,14.6050048 29.2912294,14.5591492 29.1942852,14.562702 Z M2.34514276,14.8176039 L7.97375817,14.8176039 C8.65903006,14.8176039 9.20299601,15.4873333 9.20299601,16.3311098 L9.20299601,23.2134627 C9.20299601,24.0571882 8.65903006,24.7269176 7.97375817,24.7269176 L2.34514276,24.7269176 C1.65987087,24.7269176 1.11590491,24.0571882 1.11590491,23.2134627 L1.11590491,16.3311098 C1.11590491,15.4873333 1.65987087,14.8176039 2.34514276,14.8176039 Z M14.1587654,14.8176039 L19.7873808,14.8176039 C20.4726527,14.8176039 21.0166187,15.4873333 21.0166187,16.3311098 L21.0166187,23.2134627 C21.0166187,24.0571882 20.4726527,24.7269176 19.7873808,24.7269176 L14.1587654,24.7269176 C13.4734935,24.7269176 12.9295276,24.0571882 12.9295276,23.2134627 L12.9295276,16.3311098 C12.9295276,15.4873333 13.4734935,14.8176039 14.1587654,14.8176039 Z" id="Shape"></path>
                        </g>
                    </g>
                </g>
            </g>
        </g>
    </g>
</svg>