<?xml version="1.0" encoding="UTF-8"?>
<svg width="31px" height="25px" viewBox="0 0 31 25" version="1.1" xmlns="http://www.w3.org/2000/svg" xmlns:xlink="http://www.w3.org/1999/xlink">
    <!-- Generator: Sketch 50.2 (55047) - http://www.bohemiancoding.com/sketch -->
    <title>Group 18</title>
    <desc>Created with Sketch.</desc>
    <defs></defs>
    <g id="Page-1" stroke="none" stroke-width="1" fill="none" fill-rule="evenodd">
        <g id="SystemConfig_Dash_dropdown" transform="translate(-588.000000, -325.000000)" stroke="#000000" stroke-width="0.75">
            <g id="Group-17-Copy" transform="translate(492.000000, 250.000000)">
                <g id="Group-19" transform="translate(56.000000, 76.000000)">
                    <g id="Group-18" transform="translate(41.000000, 0.000000)">
                        <g id="Group-11">
                            <polygon id="Stroke-1" points="29.423527 22.7410946 0 22.7410946 0 6.83783784 2.02027027 6.83783784 29.423527 6.83783784"></polygon>
                            <polyline id="Stroke-3" points="1.86486486 6.78593243 1.86486486 3.41891892 25.3310811 3.41891892 27.1440405 3.41891892 27.1440405 6.73402703"></polyline>
                            <g id="Group-10" transform="translate(3.729730, 0.000000)">
                                <polyline id="Stroke-4" points="21.5496014 3.47076216 21.5496014 0.259154054 0.155560811 0.259154054 0.155560811 3.47076216"></polyline>
                            </g>
                        </g>
                        <g id="Group-13" transform="translate(10.000000, 10.000000)">
                            <path d="M9,4.5 C9,6.98523288 6.98523288,9 4.5,9 C2.01476712,9 0,6.98523288 0,4.5 C0,2.01476712 2.01476712,0 4.5,0 C6.98523288,0 9,2.01476712 9,4.5 Z" id="Stroke-1"></path>
                            <polyline id="Stroke-3" points="8.1 2.21917808 4.5 4.5 4.5 0"></polyline>
                        </g>
                    </g>
                </g>
            </g>
        </g>
    </g>
</svg>