<?xml version="1.0" encoding="UTF-8"?>
<svg width="32px" height="27px" viewBox="0 0 32 27" version="1.1" xmlns="http://www.w3.org/2000/svg" xmlns:xlink="http://www.w3.org/1999/xlink">
    <!-- Generator: Sketch 50.2 (55047) - http://www.bohemiancoding.com/sketch -->
    <title>Group 8</title>
    <desc>Created with Sketch.</desc>
    <defs></defs>
    <g id="Page-1" stroke="none" stroke-width="1" fill="none" fill-rule="evenodd">
        <g id="SystemConfig_Dash_dropdown" transform="translate(-361.000000, -538.000000)" stroke="#000000" stroke-width="0.75">
            <g id="Group-14" transform="translate(263.000000, 465.000000)">
                <g id="Group-7-Copy" transform="translate(36.000000, 74.000000)">
                    <g id="Group-8" transform="translate(63.000000, 0.000000)">
                        <path d="M19.3548387,4.03225806 C19.3548387,6.25924182 17.5495644,8.06451613 15.3225806,8.06451613 C13.0955969,8.06451613 11.2903226,6.25924182 11.2903226,4.03225806 C11.2903226,1.80527431 13.0955969,0 15.3225806,0 C17.5495644,0 19.3548387,1.80527431 19.3548387,4.03225806 Z" id="Stroke-1"></path>
                        <path d="M19.3548387,20.9677419 C19.3548387,23.1947257 17.5495644,25 15.3225806,25 C13.0955969,25 11.2903226,23.1947257 11.2903226,20.9677419 C11.2903226,18.7407582 13.0955969,16.9354839 15.3225806,16.9354839 C17.5495644,16.9354839 19.3548387,18.7407582 19.3548387,20.9677419 Z" id="Stroke-3"></path>
                        <path d="M29.8387097,20.9677419 C29.8387097,23.1947257 28.0334354,25 25.8064516,25 C23.5794679,25 21.7741935,23.1947257 21.7741935,20.9677419 C21.7741935,18.7407582 23.5794679,16.9354839 25.8064516,16.9354839 C28.0334354,16.9354839 29.8387097,18.7407582 29.8387097,20.9677419 Z" id="Stroke-5"></path>
                        <path d="M8.06451613,20.9677419 C8.06451613,23.1947257 6.25924182,25 4.03225806,25 C1.80527431,25 0,23.1947257 0,20.9677419 C0,18.7407582 1.80527431,16.9354839 4.03225806,16.9354839 C6.25924182,16.9354839 8.06451613,18.7407582 8.06451613,20.9677419 Z" id="Stroke-7"></path>
                        <path d="M15.3225806,8.06451613 L15.3225806,16.9354839" id="Stroke-9"></path>
                        <path d="M4.03555121,16.9354839 L4.03555121,13.4673887 C4.03555121,13.4673887 3.85706609,11.290732 6.1281107,11.290732 L24.5223107,11.290732 C24.5223107,11.290732 25.8064516,11.228846 25.8064516,12.6267284 L25.8064516,16.9354839" id="Stroke-11"></path>
                    </g>
                </g>
            </g>
        </g>
    </g>
</svg>